<svg version="1.1" id="Layer_1" xmlns="http://www.w3.org/2000/svg" xmlns:xlink="http://www.w3.org/1999/xlink" x="0px" y="0px"
	 width="100%" viewBox="0 0 500 500" enable-background="new 0 0 500 500" xml:space="preserve">
<path fill="#000000" opacity="1.000000" stroke="none" 
	d="
M272.000000,501.000000 
	C181.333359,501.000000 91.166710,501.000000 1.000048,501.000000 
	C1.000032,334.333405 1.000032,167.666794 1.000016,1.000138 
	C167.666565,1.000092 334.333130,1.000092 500.999756,1.000046 
	C500.999847,167.666519 500.999847,334.333038 500.999939,500.999786 
	C424.833344,501.000000 348.666656,501.000000 272.000000,501.000000 
M257.956207,206.612000 
	C263.389435,194.977310 268.822693,183.342621 274.615784,170.937378 
	C262.858490,170.937378 252.381546,171.076782 241.912064,170.858154 
	C238.468079,170.786255 236.615128,171.779266 235.127502,175.024368 
	C225.214355,196.648987 215.074265,218.169556 205.018005,239.728638 
	C203.366684,243.268829 201.765076,246.832199 199.877335,250.960342 
	C212.052261,250.960342 223.364120,251.079559 234.666626,250.808838 
	C236.073471,250.775146 238.012558,248.954697 238.720169,247.487244 
	C245.151291,234.150436 251.363556,220.708115 257.956207,206.612000 
M239.548462,331.040894 
	C246.536636,331.039001 253.534576,330.817841 260.508789,331.128754 
	C263.939545,331.281677 265.473114,329.958008 266.826508,327.013794 
	C274.604218,310.094147 282.586670,293.268768 290.467285,276.396301 
	C294.313385,268.161774 298.089417,259.894501 302.169861,251.051041 
	C289.900024,251.051041 278.438171,250.927368 266.986725,251.216248 
	C265.639191,251.250244 263.837830,253.308502 263.109619,254.838913 
	C253.892609,274.209717 244.826035,293.652130 235.739716,313.085022 
	C233.082062,318.768890 230.483170,324.480286 227.452972,331.056671 
	C231.716644,331.056671 235.145264,331.056671 239.548462,331.040894 
z"/>
<path fill="#E44A1F" opacity="1.000000" stroke="none" 
	d="
M257.798035,206.954330 
	C251.363556,220.708115 245.151291,234.150436 238.720169,247.487244 
	C238.012558,248.954697 236.073471,250.775146 234.666626,250.808838 
	C223.364120,251.079559 212.052261,250.960342 199.877335,250.960342 
	C201.765076,246.832199 203.366684,243.268829 205.018005,239.728638 
	C215.074265,218.169556 225.214355,196.648987 235.127502,175.024368 
	C236.615128,171.779266 238.468079,170.786255 241.912064,170.858154 
	C252.381546,171.076782 262.858490,170.937378 274.615784,170.937378 
	C268.822693,183.342621 263.389435,194.977310 257.798035,206.954330 
z"/>
<path fill="#E44A1F" opacity="1.000000" stroke="none" 
	d="
M239.061188,331.048767 
	C235.145264,331.056671 231.716644,331.056671 227.452972,331.056671 
	C230.483170,324.480286 233.082062,318.768890 235.739716,313.085022 
	C244.826035,293.652130 253.892609,274.209717 263.109619,254.838913 
	C263.837830,253.308502 265.639191,251.250244 266.986725,251.216248 
	C278.438171,250.927368 289.900024,251.051041 302.169861,251.051041 
	C298.089417,259.894501 294.313385,268.161774 290.467285,276.396301 
	C282.586670,293.268768 274.604218,310.094147 266.826508,327.013794 
	C265.473114,329.958008 263.939545,331.281677 260.508789,331.128754 
	C253.534576,330.817841 246.536636,331.039001 239.061188,331.048767 
z"/>
</svg>